<svg xmlns="http://www.w3.org/2000/svg" xmlns:xlink="http://www.w3.org/1999/xlink" width="100.0" height="100.0" viewBox="-75.24974017525452 39.922440652742594 0.07314793488743021 0.044618883604812254" preserveAspectRatio="xMinYMin meet"><g transform="matrix(1,0,0,-1,0,79.88950018909)"><path fill-rule="evenodd" fill="#66cc99" stroke="#555555" stroke-width="0.0014629586977486042" opacity="0.6" d="M -75.1874180603301,39.9633763560547 L -75.186440372629,39.9634903081845 L -75.1856515302402,39.9636360204374 L -75.1852127538088,39.9637669640635 L -75.1843145944083,39.9641139869633 L -75.1837466938848,39.9642876269114 L -75.1834707316235,39.9643503535738 L -75.183464269073,39.9643420512645 L -75.1834413683443,39.9643128436144 L -75.1834183387643,39.9642836997517 L -75.1833951719393,39.9642546248946 L -75.1833718630536,39.9642256225394 L -75.1833484014418,39.9641966960513 L -75.1833247810842,39.9641678498007 L -75.1833009948252,39.9641390872315 L -75.1832770331353,39.9641104126354 L -75.183252888825,39.9640818303566 L -75.1832285559425,39.9640533429647 L -75.1832040260944,39.964024955678 L -75.183179342317,39.9639966451318 L -75.1831545499867,39.9639683880139 L -75.1831296526134,39.9639401844028 L -75.1831046550128,39.9639120308021 L -75.1830795595591,39.9638839263639 L -75.1830543686941,39.9638558684396 L -75.1830290882676,39.9638278571601 L -75.1830037195858,39.9637998889505 L -75.1829782673965,39.9637719621149 L -75.1829527352093,39.9637440767319 L -75.1829271255006,39.9637162292526 L -75.182901441848,39.9636884179552 L -75.1828756889314,39.9636606429442 L -75.1828498692609,39.9636328997708 L -75.1828239863122,39.9636051894136 L -75.1827980437312,39.9635775083501 L -75.1827720450959,39.9635498548584 L -75.182745993916,39.963522229017 L -75.1827198926675,39.963494627277 L -75.1826937472683,39.9634670479691 L -75.1826675577523,39.9634394901927 L -75.1826413300373,39.9634119522784 L -75.1826150665651,39.9633844315776 L -75.1825887720836,39.9633569263946 L -75.1825624489328,39.9633294367818 L -75.1825360995884,39.9633019591904 L -75.1825097299683,39.9632744919509 L -75.1824833424463,39.9632470342153 L -75.1824569394645,39.9632195833353 L -75.1824305257364,39.9631921385153 L -75.1824041037041,39.963164697107 L -75.1823776780812,39.9631372583147 L -75.1823512513098,39.9631098194902 L -75.1823248281036,39.9630823798378 L -75.1822984097345,39.9630549366831 L -75.1822720021201,39.9630274883564 L -75.1822456076005,39.9630000349101 L -75.1822192286854,39.9629725718954 L -75.1821928712246,39.9629450994432 L -75.1821665352861,39.962917615753 L -75.1821402280254,39.9628901173809 L -75.1821139506126,39.9628626043532 L -75.1820877077953,39.962835074974 L -75.1820615008455,39.9628075265688 L -75.1820353356808,39.9627799574682 L -75.1820092146751,39.9627523668242 L -75.1819831414402,39.9627247520148 L -75.1819571183499,39.9626971121919 L -75.1819311513901,39.9626694438857 L -75.1819052417303,39.9626417471223 L -75.1818793941185,39.9626140202061 L -75.1818536121664,39.9625862605148 L -75.1818278971118,39.9625584662742 L -75.1818022548726,39.9625306358149 L -75.1817766889922,39.9625027683151 L -75.1817512007428,39.9624748611004 L -75.1817257960419,39.9624469125013 L -75.1817004761275,39.9624189207433 L -75.181675245713,39.9623908850314 L -75.1816501083764,39.9623628036434 L -75.1816250677634,39.962334673057 L -75.1816001262478,39.9623064924244 L -75.1815752873733,39.9622782609241 L -75.1815505559215,39.96224997596 L -75.1815259343004,39.9622216357841 L -75.1815014260535,39.9621932395749 L -75.1814770348268,39.96216478381 L -75.1814527641296,39.962136268568 L -75.1814286139962,39.9621076929488 L -75.1814045037154,39.9620790857798 L -75.1813804023931,39.9620504589836 L -75.1813563124031,39.9620218117123 L -75.1813322336773,39.9619931457664 L -75.1813081698277,39.9619644585238 L -75.1812841231259,39.9619357518374 L -75.1812600924701,39.9619070238805 L -75.1812360825399,39.9618782747578 L -75.1812120944372,39.961849506296 L -75.1811881282641,39.9618207157946 L -75.1811641875301,39.9617919033319 L -75.1811402733373,39.9617630707348 L -75.1811163881275,39.9617342153548 L -75.1810925330025,39.9617053390188 L -75.1810687103701,39.9616764399786 L -75.1810449201964,39.9616475191344 L -75.1810211660249,39.9616185756647 L -75.1809974501616,39.9615896105222 L -75.1809737715044,39.96156062188 L -75.1809501359029,39.9615316098693 L -75.1809265409833,39.961502575338 L -75.180902991459,39.9614735174905 L -75.1808794873302,39.9614444363269 L -75.1808560321404,39.9614153310256 L -75.1808326258556,39.961386202487 L -75.1808092708837,39.9613570489627 L -75.1807859694963,39.9613278723059 L -75.1807627229313,39.9612986707423 L -75.1807395334945,39.9612694452245 L -75.1807164024237,39.9612401939782 L -75.1806933308548,39.96121091793 L -75.1806703222974,39.9611816171585 L -75.1806473767854,39.9611522907635 L -75.1806244977946,39.9611229397238 L -75.1806016853928,39.961093562239 L -75.1805789418857,39.9610641592618 L -75.1805562696472,39.9610347299443 L -75.1805336698471,39.9610052743129 L -75.1805111448249,39.96097579242 L -75.1804886957847,39.9609462833916 L -75.1804663250321,39.9609167481803 L -75.1804440337709,39.9608871859121 L -75.1804218231709,39.9608575966134 L -75.1803996967418,39.9608279803627 L -75.1803776545514,39.9607983353596 L -75.1803557000414,39.9607686634834 L -75.1803338332457,39.9607389638337 L -75.1803120576737,39.9607092364891 L -75.1802903733937,39.9606794796494 L -75.1802687838128,39.9606496960938 L -75.1802472890673,39.9606198822216 L -75.1802258913947,39.9605900407857 L -75.1802045932027,39.9605601700383 L -75.1801833968309,39.9605302700318 L -75.1801623023134,39.9605003398659 L -75.1801413119217,39.9604703813937 L -75.1801204280634,39.9604403928671 L -75.1800996530784,39.9604103743386 L -75.1800789869664,39.9603803258082 L -75.1800584321012,39.9603502464283 L -75.1800379907883,39.9603201371514 L -75.1800176654014,39.9602899971298 L -75.1799974559403,39.9602598263636 L -75.1799773647447,39.9602296249052 L -75.1799573941883,39.960199391907 L -75.1799375466108,39.9601691274212 L -75.1799178220119,39.9601388314481 L -75.1799165963898,39.9601369361955 L -75.1798982227312,39.96010850404 L -75.1798789421143,39.9600780792496 L -75.1798607751115,39.9600472802545 L -75.1798485845672,39.9600249522012 L -75.1798437512749,39.9600160996083 L -75.179827802933,39.959984561925 L -75.1798226468583,39.9599735639996 L -75.1798128624483,39.9599526909179 L -75.1797988621834,39.9599205103007 L -75.1797857367385,39.9598880465399 L -75.1797734173747,39.9598553215222 L -75.1797618363528,39.9598223616617 L -75.1797509272054,39.9597891906979 L -75.1797406210919,39.9597558332181 L -75.1797308527151,39.9597223129878 L -75.1797215544043,39.9596886546207 L -75.1797126573189,39.9596548827038 L -75.1797040949583,39.9596210218767 L -75.1796958008559,39.9595870958788 L -75.1796877061718,39.9595531292972 L -75.1796797443713,39.9595191476717 L -75.1796718478527,39.9594851738151 L -75.1796639500818,39.9594512332671 L -75.1796559822531,39.9594173497145 L -75.1796478790365,39.9593835478231 L -75.1796395704227,39.9593498521535 L -75.1796309911162,39.9593162864712 L -75.1796220938802,39.959282861431 L -75.1796130307833,39.9592494570011 L -75.179603859171,39.959216042931 L -75.1795945907762,39.9591826185824 L -75.1795852408071,39.9591491842961 L -75.1795758221662,39.9591157394601 L -75.1795663488921,39.959082284389 L -75.1795568350229,39.9590488193971 L -75.1795472934272,39.9590153447729 L -75.1795377393132,39.9589818608571 L -75.1795281844474,39.9589483661113 L -75.1795186451397,39.9589148627029 L -75.1795091331908,39.9588813481933 L -75.1794996625708,39.9588478246976 L -75.1794902473518,39.9588142916299 L -75.179480901572,39.958780749305 L -75.1794716381337,39.9587471971109 L -75.1794624722448,39.9587136353883 L -75.1794534167734,39.9586800644256 L -75.1794444846219,39.9586464836109 L -75.1794356909639,39.9586128941853 L -75.1794270498716,39.958579295563 L -75.1794185730772,39.958545687106 L -75.1794102757544,39.9585120700553 L -75.1794021708053,39.958478443799 L -75.1793942734716,39.9584448077777 L -75.1793865965872,39.9584111631801 L -75.1793791530202,39.9583775102944 L -75.1793719580462,39.958343847661 L -75.1793650256689,39.9583101764948 L -75.1793583676204,39.9582764961577 L -75.1793519990742,39.9582428078907 L -75.1793459329661,39.9582091101817 L -75.1793401844697,39.9581754042718 L -75.1793347664867,39.9581416895492 L -75.1793296918508,39.9581079672024 L -75.1793249758715,39.9580742348715 L -75.1793206313485,39.9580404946455 L -75.1793166723192,39.9580067468389 L -75.1793131128892,39.9579729899658 L -75.179309965892,39.9579392252148 L -75.1793072693408,39.9579054381206 L -75.1793050937539,39.9578715906189 L -75.1793034344172,39.957837683505 L -75.1793022770874,39.957803721866 L -75.179301611031,39.9577697108674 L -75.1793014231407,39.9577356565226 L -75.1793017004114,39.9577015621442 L -75.1793024320754,39.9576674337982 L -75.1793036050595,39.9576332765976 L -75.1793052063246,39.9575990947553 L -75.1793072239334,39.9575648943109 L -75.1793096460166,39.9575306795035 L -75.1793124606709,39.9574964554724 L -75.1793156536194,39.9574622282048 L -75.1793192141969,39.9574280010657 L -75.179323130466,39.9573937800947 L -75.179327388184,39.9573595703788 L -75.1793319754478,39.9573253770571 L -75.179336881558,39.957291204395 L -75.1793420922379,39.9572570583798 L -75.1793475967884,39.9572229432765 L -75.1793533809667,39.9571888641722 L -75.1793594352095,39.9571548262585 L -75.1793657441045,39.9571208345963 L -75.1793722969183,39.957086894351 L -75.1793790805782,39.9570530106357 L -75.1793860843854,39.9570191877157 L -75.1793932940632,39.9569854315782 L -75.1794006989126,39.9569517464885 L -75.1794082846572,39.9569181384337 L -75.179416040632,39.9568846107788 L -75.1794239536965,39.9568511704375 L -75.1794322289769,39.9568178111939 L -75.1794410049538,39.9567845244376 L -75.1794502560269,39.9567513059909 L -75.1794599589012,39.9567181526287 L -75.1794700844331,39.9566850609947 L -75.1794806093959,39.9566520260635 L -75.1794915070197,39.9566190436312 L -75.1795027516362,39.9565861113203 L -75.1795143176793,39.956553224053 L -75.1795261783451,39.9565203785256 L -75.1795383092035,39.9564875705865 L -75.1795506834846,39.9564547960317 L -75.1795632755205,39.9564220524843 L -75.1795760609491,39.956389333992 L -75.179589011763,39.9563566381254 L -75.1796021035322,39.9563239607329 L -75.1796124109883,39.9562984668915 L -75.179615310657,39.9562912976369 L -75.1796286063339,39.9562586455339 L -75.1796419649971,39.9562259993458 L -75.1796553609792,39.9561933566955 L -75.1796687698503,39.9561607134318 L -75.1796693824513,39.9561592206656 L -75.1796821637054,39.9561280644243 L -75.1796955192166,39.9560954073482 L -75.179708807309,39.9560627370473 L -75.179722004689,39.9560300502965 L -75.1797350857232,39.9559973438186 L -75.1797359169726,39.9559952396588 L -75.1797480225066,39.9559646124833 L -75.1797607917458,39.9559318530658 L -75.1797733654678,39.9558990622364 L -75.1797857192774,39.9558662349435 L -75.1797978275075,39.9558333688101 L -75.1798096634232,39.9558004587323 L -75.1798212014257,39.9557675005327 L -75.1798324158477,39.9557344918342 L -75.179843282635,39.9557014185828 L -75.1798538058082,39.9556682673535 L -75.1798640144423,39.9556350433029 L -75.1798739328992,39.9556017523828 L -75.1798835901517,39.9555684024505 L -75.1798930117314,39.9555349994842 L -75.179916747103,39.9554488304874 L -75.1799201376339,39.9554345326073 L -75.1799288892809,39.9554009803796 L -75.1799375398967,39.9553674060656 L -75.1799461184876,39.9553338166225 L -75.1799546505168,39.9553002198286 L -75.1799631627533,39.9552666198879 L -75.1799716829997,39.9552330246311 L -75.1799802379567,39.9551994400628 L -75.1799888543251,39.9551658721868 L -75.1799975599414,39.955132327934 L -75.1800063803023,39.9550988141826 L -75.1800153433125,39.9550653360628 L -75.1800244756042,39.9550319013793 L -75.1800338039121,39.9549985152359 L -75.1800433560383,39.9549651854637 L -75.1800531598872,39.9549319171926 L -75.1800632386496,39.9548987163483 L -75.1800736236369,39.9548655908401 L -75.1800843391758,39.9548325475202 L -75.1800954120347,39.954799590592 L -75.1801068711852,39.9547667279125 L -75.1801187409879,39.9547339654336 L -75.180131051618,39.9547013101381 L -75.1801438274362,39.9546687679776 L -75.1801570963123,39.9546363449824 L -75.1801708860819,39.954604048083 L -75.1801850830255,39.9545718504045 L -75.1801995212264,39.9545397121895 L -75.1802141949374,39.9545076306063 L -75.1802262696352,39.9544816753451 L -75.1802290936985,39.9544756036184 L -75.1802442116606,39.9544436310946 L -75.180259540771,39.9544117092506 L -75.1802750728411,39.9543798379028 L -75.1802907998184,39.9543480132666 L -75.1803067158197,39.9543162361113 L -75.180322811623,39.9542845026261 L -75.1803390802432,39.9542528117535 L -75.1803555147638,39.9542211606355 L -75.1803721058263,39.9541895490624 L -75.1803888465141,39.9541579741762 L -75.1804057287067,39.9541264339928 L -75.1804227465891,39.954094927481 L -75.1804398908712,39.9540634526306 L -75.1804571534323,39.9540320074575 L -75.1804745284917,39.9540005900304 L -75.1804920067933,39.9539691974387 L -75.1805095812842,39.9539378304255 L -75.1805272439122,39.9539064852063 L -75.1805449865568,39.9538751597971 L -75.1805628034033,39.9538438531668 L -75.1805806862971,39.9538125642315 L -75.1805986260164,39.9537812891807 L -75.1806166155423,39.9537500278572 L -75.1806346479585,39.953718777403 L -75.1806527162803,39.9536875367605 L -75.180670810082,39.9536563029933 L -75.1806889246844,39.9536250759966 L -75.1807070508317,39.95359385286 L -75.1807251804375,39.9535626306993 L -75.1807433076191,39.9535314102838 L -75.1807614231545,39.953500187803 L -75.1807795200933,39.9534689612991 L -75.1807975902472,39.9534377305889 L -75.1808156266997,39.9534064928142 L -75.1808336213649,39.9533752450911 L -75.1808515660202,39.9533439881364 L -75.1808694537835,39.953312718192 L -75.1808872777044,39.9532814333002 L -75.180905028459,39.9532501323513 L -75.1809226990967,39.9532188133875 L -75.1809402826334,39.9531874753516 L -75.1809577710169,39.953156114459 L -75.180975183895,39.9531247374571 L -75.180992609454,39.9530933652419 L -75.181010052339,39.9530619988184 L -75.18102751255,39.9530306381868 L -75.1810401924616,39.9530078895892 L -75.1810449889511,39.9529992824204 L -75.1810624826782,39.9529679324457 L -75.1810799925955,39.9529365873364 L -75.1810975163294,39.9529052479401 L -75.1811150562874,39.9528739125089 L -75.1811326088923,39.9528425827646 L -75.1811501765517,39.9528112569592 L -75.1811677569258,39.9527799350401 L -75.1811853488111,39.9527486178816 L -75.1812029534112,39.9527173046095 L -75.1812205707603,39.9526859943235 L -75.1812381984506,39.9526546887717 L -75.1812558365503,39.9526233861537 L -75.1812734838555,39.9525920873435 L -75.1812911416042,39.9525607905668 L -75.1813088073886,39.9525294975718 L -75.1813264824126,39.9524982074843 L -75.1813441655404,39.9524669193778 L -75.1813618555684,39.9524356341266 L -75.1813795525304,39.9524043508302 L -75.1813972564265,39.9523730694887 L -75.1814149649172,39.9523417900498 L -75.181432680342,39.9523105125657 L -75.1814503991916,39.952279236958 L -75.1814681226698,39.9522479623525 L -75.181485849607,39.952216688723 L -75.1815035799689,39.9521854169699 L -75.181521312654,39.9521541452664 L -75.181539048764,39.9521228754392 L -75.1815567848916,39.952091604709 L -75.1815745233084,39.9520603349286 L -75.1815922617088,39.9520290651456 L -75.1816100000589,39.9519977962599 L -75.1816277384267,39.9519665264713 L -75.1816454744387,39.9519352566275 L -75.1816632104685,39.9519039858807 L -75.1816809441764,39.9518727141785 L -75.1816986743589,39.951841442395 L -75.1817164022196,39.9518101696561 L -75.1817341266229,39.9517788950354 L -75.1817518463649,39.9517476194069 L -75.1817695614798,39.9517163418704 L -75.1817872707637,39.9516850633 L -75.1818049754205,39.9516537828216 L -75.1818226731107,39.9516225003827 L -75.181840365038,39.9515912151095 L -75.1818580488291,39.9515599278497 L -75.1818671325294,39.9515438490378 L -75.1818757256875,39.9515286377293 L -75.181893393274,39.9514973446958 L -75.1819110515544,39.9514660496497 L -75.182018828118,39.9512672585067 L -75.1820848864467,39.9511363544235 L -75.1821498238815,39.951004899927 L -75.1822152817602,39.9508737003218 L -75.1822828943594,39.950743561652 L -75.1823543030327,39.9506152883145 L -75.1824311432422,39.9504896854709 L -75.182515055054,39.9503675601833 L -75.1826076763245,39.9502497158542 L -75.1827084675323,39.9501357754792 L -75.1828142708599,39.9500240465473 L -75.1829245340129,39.9499143355822 L -75.1830387471291,39.9498064725838 L -75.1831564049933,39.9497002885588 L -75.1832769977485,39.9495956135104 L -75.1834000190489,39.9494922775224 L -75.183524958974,39.9493901124024 L -75.1836124218397,39.9493200847813 L -75.1836513112162,39.9492889473379 L -75.1837785670285,39.9491886141673 L -75.1839062189376,39.9490889420561 L -75.1840337581998,39.9489897628471 L -75.1841610339284,39.9488909181916 L -75.1842887222072,39.9487923610427 L -75.184416863907,39.9486940941153 L -75.1845454518394,39.9485961217521 L -75.1846744799859,39.9484984483221 L -75.1848039423619,39.9484010772939 L -75.1849338340847,39.9483040139631 L -75.1850641503396,39.9482072618245 L -75.1851948839388,39.948110825221 L -75.1853260300677,39.9480147076476 L -75.1854575815383,39.9479189134473 L -75.1855895346722,39.9478234470414 L -75.1857218822817,39.9477283127729 L -75.1858546195525,39.9476335141369 L -75.1859877404328,39.9475390564028 L -75.1861212389729,39.9474449421392 L -75.1862551091212,39.9473511766159 L -75.1863893472333,39.9472577633538 L -75.1863952009394,39.947253716197 L -75.1865239449184,39.9471647075704 L -75.1866588985665,39.9470720118866 L -75.1867942009905,39.9469796806457 L -75.1868752190108,39.9469250409713 L -75.1863961497471,39.9465770114272 L -75.1864378124461,39.946537851223 L -75.1864625814204,39.946514494686 L -75.1865188073938,39.9464787900343 L -75.18660142098,39.9464258783158 L -75.1866379604185,39.9464088855225 L -75.1867192713179,39.9463723177609 L -75.1867913980625,39.9463255534172 L -75.1868569333077,39.9462898584101 L -75.1869342493556,39.9462307696972 L -75.1869958950254,39.9461725579672 L -75.1870553007624,39.9461241964519 L -75.1870819947378,39.9460918159407 L -75.1870986141038,39.946062793638 L -75.1871071970591,39.9460329358376 L -75.1871417777138,39.9460310586127 L -75.1871906242998,39.9460338168545 L -75.187235963078,39.9460324016144 L -75.187272915856,39.9460182515372 L -75.1873238423966,39.9460050299351 L -75.1875936316859,39.9458348385818 L -75.1875968142559,39.9458289801343 L -75.1875906154564,39.9458168212899 L -75.187580693487,39.945802598853 L -75.1875884696155,39.9457879842972 L -75.1876132814783,39.9457644347674 L -75.1876711408677,39.9457551674471 L -75.1877176619057,39.9457492778887 L -75.1877352259543,39.9457317951091 L -75.1877613666219,39.9457055695003 L -75.1877860031959,39.9456803951035 L -75.1878115866117,39.9456558770636 L -75.1878401648655,39.9456306645614 L -75.1878622537919,39.9456078587597 L -75.1879437399494,39.9455478768458 L -75.1880266322708,39.9454868594894 L -75.1880423077808,39.9454813359296 L -75.1880904708806,39.9454644257139 L -75.1881375000336,39.9454380655943 L -75.1881650443575,39.9454290634091 L -75.1881945675156,39.9454099249082 L -75.1882095926883,39.9453750120949 L -75.1882265997602,39.9453481706355 L -75.1882779665959,39.9453173509343 L -75.1883537694206,39.9452675673829 L -75.1884314530321,39.9452083814065 L -75.1885223166249,39.9451291259978 L -75.1886013838453,39.9450816100481 L -75.1886528836122,39.9450413217468 L -75.1887083782509,39.9449976258115 L -75.18875182121,39.9449627266992 L -75.1887958347186,39.9449254535379 L -75.1888387930799,39.9448796494721 L -75.1889049436919,39.9448207579951 L -75.1889541686405,39.9447839164917 L -75.1890326722358,39.9447339738723 L -75.1891252676899,39.9446652912809 L -75.1892190348859,39.9445835575328 L -75.1892848087017,39.944531728557 L -75.1893552507892,39.9444817309961 L -75.1894020268973,39.9444340955161 L -75.1894870009668,39.944332234947 L -75.1895715556818,39.9442464993269 L -75.1896173041153,39.9441822000913 L -75.1896852764814,39.9441240714684 L -75.1897814595248,39.9440360607285 L -75.1898595428851,39.9439598230635 L -75.1899440997293,39.9438936436338 L -75.1900104903219,39.9438351353409 L -75.1901050470177,39.9437417684936 L -75.1901873881869,39.9436744194922 L -75.1902190688799,39.9436383977939 L -75.190259169018,39.9435860115502 L -75.1903048841337,39.9435391314238 L -75.1903582204559,39.9434836518368 L -75.1903959814783,39.9434423011634 L -75.1906094353251,39.9432570046391 L -75.1908643761374,39.9430166348059 L -75.1909443737515,39.9429411933085 L -75.1909680305273,39.9429188832471 L -75.1910095450851,39.9428797335008 L -75.1910887740299,39.9429254162592 L -75.191362241199,39.9430834764834 L -75.1915751895584,39.9432070984186 L -75.1916401384937,39.9432450028093 L -75.1917510638764,39.9431449133413 L -75.1918689584298,39.9430371134033 L -75.191988894971,39.9429305022719 L -75.1921129331891,39.9428277676297 L -75.1922431315104,39.9427315998245 L -75.1923815496776,39.9426446856194 L -75.1925295372989,39.9425675245019 L -75.1926856657803,39.9424968337454 L -75.1928482371216,39.9424325078847 L -75.1930155745908,39.9423745608695 L -75.1931859978884,39.9423230083814 L -75.1933578290617,39.9422778661634 L -75.1935300516732,39.9422393638352 L -75.193582452986,39.9422303602994 L -75.1937063606748,39.9422090713078 L -75.1937869266011,39.9421991330363 L -75.1938863156162,39.9421868742284 L -75.1939732998408,39.9421798864022 L -75.1940683125475,39.9421722529951 L -75.1942507463803,39.9421646870896 L -75.1944320143951,39.9421636551556 L -75.1946115518894,39.9421690473075 L -75.1947915137522,39.9421814900051 L -75.1949715174447,39.9422002313924 L -75.1951509559408,39.9422244191092 L -75.1953292187975,39.9422531980199 L -75.1955057002055,39.9422857139974 L -75.1956801022118,39.9423213306097 L -75.1958536403924,39.9423607191549 L -75.1960261405173,39.9424040000958 L -75.1961971615636,39.9424511356857 L -75.1963662601329,39.9425020890286 L -75.1965329952318,39.9425568214827 L -75.1966969255596,39.942615302511 L -75.1968579356953,39.9426780188024 L -75.1968981205396,39.942694885436 L -75.1970165904677,39.9427446117261 L -75.197173523139,39.9428140538218 L -75.1973293633877,39.9428853193482 L -75.1974847456311,39.942957380864 L -75.1976402983643,39.9430292125952 L -75.1977966536857,39.9430997861411 L -75.1979544447212,39.9431680767253 L -75.198114302352,39.9432330568145 L -75.1982766208755,39.9432942008757 L -75.1984399509206,39.9433546626153 L -75.1986039534196,39.9434148678711 L -75.198768657076,39.9434744262419 L -75.1989340928609,39.9435329491788 L -75.1991002895039,39.94359004538 L -75.1992672780026,39.9436453253962 L -75.1994350870451,39.9436983988254 L -75.1996037476211,39.9437488762179 L -75.1997732872753,39.943796366245 L -75.1999437381249,39.9438404803828 L -75.2001151518418,39.943880808017 L -75.2002901207995,39.9439145839186 L -75.2004693144825,39.9439401867271 L -75.2006512044779,39.9439577923879 L -75.2008342612687,39.9439675750293 L -75.2010169564395,39.943969710616 L -75.2011977592716,39.9439643741699 L -75.2013760044082,39.9439517950898 L -75.2015544306089,39.9439325442078 L -75.2017328846917,39.9439071776456 L -75.2019107658604,39.9438762325717 L -75.2020874708518,39.9438402497072 L -75.2022624013246,39.9437997635793 L -75.2024349551997,39.9437553149426 L -75.2026045305752,39.9437074400538 L -75.2027734081753,39.9436572194247 L -75.2029435379502,39.9436049396307 L -75.2031132975507,39.94354981771 L -75.2032810600144,39.9434910688058 L -75.203445200649,39.9434279099234 L -75.2036040936932,39.9433595553502 L -75.2037561121164,39.9432852220569 L -75.203899631264,39.9432041261735 L -75.2040346288712,39.9431155806722 L -75.2041662827075,39.943019856381 L -75.204293769469,39.9429176819719 L -75.2044155039925,39.9428097818258 L -75.204529901133,39.9426968803295 L -75.2046353769336,39.9425797019009 L -75.2047303474897,39.9424589700617 L -75.2048132288817,39.9423354092364 L -75.2048824858351,39.9422097269094 L -75.2049409464835,39.9420812659553 L -75.2049915584349,39.9419496791329 L -75.2050351007837,39.9418154180229 L -75.2050723561975,39.9416789324804 L -75.2051041037302,39.9415406749816 L -75.2051311248375,39.9414010962521 L -75.205154201004,39.941260646116 L -75.2051735185233,39.9411239778913 L -75.205174112438,39.9411197770711 L -75.2051916405454,39.94097894074 L -75.2052075656577,39.940838586018 L -75.2052226691013,39.9406991663271 L -75.2052264103197,39.9406615242795 L -75.2052364274333,39.9405607502433 L -75.2052446218488,39.9404221260175 L -75.2052477414494,39.9402832053917 L -75.2052468002802,39.9401440414982 L -75.2052428100388,39.9400046874175 L -75.2052367812788,39.9398651953032 L -75.2052297291901,39.9397256183134 L -75.20522266314,39.9395860085763 L -75.2052165970984,39.9394464201245 L -75.2052125416193,39.9393069042123 L -75.2052115106222,39.939167515773 L -75.2052134997476,39.9390282457003 L -75.2052152750323,39.9388889033074 L -75.2052166749498,39.9387494886143 L -75.2052179082383,39.9386100224706 L -75.2052191836007,39.9384705266261 L -75.2052207062635,39.9383310218523 L -75.2052226860955,39.9381915299249 L -75.2052253294894,39.9380520716416 L -75.2052288451074,39.9379126696522 L -75.2052334382029,39.9377733438279 L -75.2052393186044,39.9376341168446 L -75.2052466926976,39.9374950094996 L -75.2052557691718,39.9373560435423 L -75.2052667544095,39.9372172397698 L -75.2052798559607,39.937078619005 L -75.205295254948,39.93694018887 L -75.2053082152465,39.9368316585181 L -75.2053118470875,39.9368012446047 L -75.2053294587669,39.9366616399978 L -75.2053487769899,39.9365217200595 L -75.2053704898904,39.9363818307256 L -75.2053952856645,39.9362423161307 L -75.2054238500972,39.9361035221573 L -75.2054568725104,39.9359657938645 L -75.2054950387468,39.935829475332 L -75.2055390381199,39.9356949116159 L -75.2055895563971,39.935562448593 L -75.2056231387167,39.9354868136896 L -75.2056472840541,39.9354324313414 L -75.2057135664732,39.9353049689862 L -75.2057883291286,39.9351797688358 L -75.2058703818628,39.9350565440826 L -75.205958531119,39.9349350051423 L -75.2060515856878,39.9348148624849 L -75.2061483542999,39.9346958283843 L -75.2062476457267,39.9345776142174 L -75.2063482687466,39.9344599313651 L -75.2064490309749,39.9343424911866 L -75.2065487400675,39.934225004145 L -75.2066462059582,39.9341071825596 L -75.2067423265899,39.9339892391637 L -75.206839232203,39.9338716717012 L -75.2069368435864,39.9337544387695 L -75.2070350686659,39.9336374986811 L -75.2070964669774,39.9335649453263 L -75.2071338178072,39.9335208070998 L -75.2072330013095,39.9334043214903 L -75.2073325283363,39.9332879983914 L -75.2074323103566,39.9331717952942 L -75.207532254196,39.9330556686864 L -75.2076322713242,39.9329395760596 L -75.2077322732115,39.9328234749061 L -75.2078321667183,39.9327073208141 L -75.2079318633152,39.9325910712763 L -75.2080312721349,39.932474683734 L -75.2081303046828,39.9323581147804 L -75.2082288689224,39.9322413218312 L -75.2083268751907,39.9321242614544 L -75.2084242326215,39.9320068910923 L -75.2085208527216,39.9318891673394 L -75.2086167183564,39.9317710790056 L -75.2087124384102,39.9316528999755 L -75.2088081441072,39.9315346890194 L -75.2089038019725,39.9314164336826 L -75.2089993749896,39.931298122333 L -75.2090948297515,39.9311797407155 L -75.209190131547,39.9310612781503 L -75.2092852457663,39.9309427212571 L -75.2093801377996,39.9308240566554 L -75.2094747741733,39.9307052718912 L -75.2095691190074,39.9305863562592 L -75.2096631377603,39.930467294579 L -75.2097567957554,39.9303480752711 L -75.2098500583168,39.9302286867563 L -75.2099428920388,39.9301091147806 L -75.2100352622455,39.9299893477649 L -75.2101271331594,39.9298693723037 L -75.2102184701049,39.9297491768184 L -75.2103092408466,39.9296287470812 L -75.2103994071677,39.929508072336 L -75.2104889379352,39.9293871401817 L -75.2105777962701,39.929265935387 L -75.2106659486338,39.9291444472998 L -75.2107536722399,39.9290226487228 L -75.2108411418682,39.9289004975757 L -75.2109281373532,39.9287779664593 L -75.2110144410037,39.9286550244259 L -75.2110998338601,39.928531643203 L -75.2111079235699,39.9285197542751 L -75.2111840981671,39.9284077936447 L -75.2112670138322,39.9282834465537 L -75.2113483631368,39.928158571885 L -75.2114279271606,39.9280331404685 L -75.2115054869852,39.9279071231344 L -75.2115808236936,39.9277804907137 L -75.2116537207092,39.9276532140894 L -75.2117239556438,39.9275252631154 L -75.2117913130599,39.9273966096017 L -75.2118555422137,39.927267199349 L -75.2119157751802,39.9271364572336 L -75.2119718731209,39.9270042783753 L -75.2120240730213,39.9268708356111 L -75.2120726106967,39.9267363017515 L -75.2121177230972,39.9266008505322 L -75.212159647239,39.9264646538879 L -75.2121986177648,39.9263278846009 L -75.2122348727902,39.926190716431 L -75.212268646989,39.9260533212594 L -75.2123001785073,39.9259158719446 L -75.2123297030842,39.9257785430936 L -75.2123575204882,39.9256412674592 L -75.2123838548584,39.9255031823372 L -75.212408280064,39.9253643548835 L -75.2124303162302,39.9252249754035 L -75.2124406226042,39.9251498355162 L -75.2133108510516,39.9255168180042 L -75.2167110406324,39.9269506064737 L -75.2167663395018,39.9269733187702 L -75.2176777470345,39.9273476405369 L -75.2193655404656,39.9280438135874 L -75.2194883539011,39.9281259190079 L -75.2205512306555,39.9290091413694 L -75.2205906182922,39.9290563260531 L -75.221105444331,39.9294752089108 L -75.2215159335041,39.9298360836773 L -75.2220011244697,39.9302341255517 L -75.2226987313388,39.9308170690662 L -75.2227276927878,39.9308412702487 L -75.2232984682377,39.9313185791767 L -75.2233054922634,39.9313245408734 L -75.22459570122,39.9324198075758 L -75.225229382269,39.9329632850258 L -75.2258627273626,39.9334902045163 L -75.2272540851579,39.9346706214057 L -75.2286239880967,39.933704938079 L -75.2291295194088,39.9333548737271 L -75.229323570981,39.9332134161762 L -75.2296427339208,39.9329869381429 L -75.2297730167207,39.9329074041336 L -75.2302517157967,39.9325604647509 L -75.2312796733572,39.9318369167678 L -75.2323069689118,39.9311247007722 L -75.2323643764369,39.9310836962299 L -75.2338299131607,39.930049754015 L -75.2354148563807,39.9289350603698 L -75.2354816797653,39.9288866573111 L -75.2355914981744,39.9289147066817 L -75.2359332686531,39.9289893104946 L -75.2362897677915,39.9290540197359 L -75.23699938215,39.9291844545043 L -75.2377284499822,39.9293290655874 L -75.2384719737502,39.929486894415 L -75.2390536839875,39.929840393497 L -75.2406194317811,39.9301408860109 L -75.2423298910681,39.930465009905 L -75.2429670793566,39.9305857469306 L -75.243807844489,39.9307450527849 L -75.2436959617003,39.9308307149099 L -75.243637738486,39.9309187921533 L -75.2436070872781,39.9310874153094 L -75.2435600302721,39.9312039520694 L -75.2435182109821,39.9313441165137 L -75.2434769113965,39.9314701836495 L -75.2434363036144,39.9315774558551 L -75.2434201117438,39.9316852626066 L -75.2434044385466,39.9317789720377 L -75.2434023591013,39.9318353576062 L -75.2433448278341,39.9319046389099 L -75.2432813665677,39.931969088285 L -75.243187732429,39.9320234726199 L -75.2431064789256,39.9320734261319 L -75.2430513060595,39.9321615697946 L -75.2429369342422,39.932281337108 L -75.2428462838806,39.9324204329498 L -75.242724075838,39.9325870552149 L -75.2426264546734,39.9327495117313 L -75.2425312587535,39.932846185595 L -75.2424548947581,39.9329291624843 L -75.2423527282912,39.933049196132 L -75.2422880502516,39.9331465371007 L -75.2422416842353,39.9332442775591 L -75.2421712493272,39.9333320871125 L -75.2421267901686,39.933378141375 L -75.2420144953579,39.9334415213222 L -75.2418908606594,39.9334811417323 L -75.2417189173137,39.9335055967978 L -75.2415595261302,39.93352092068 L -75.241399615721,39.9335503416493 L -75.2411907017766,39.9335833927123 L -75.2409756843525,39.9336163089693 L -75.2407615329004,39.9336257314317 L -75.2405182515742,39.9335968959814 L -75.2402458397186,39.9335298006068 L -75.2401629416666,39.9335016819134 L -75.239904970579,39.9334141806748 L -75.2396147697012,39.9333325866517 L -75.2394227495835,39.9332390343434 L -75.2392858364772,39.9331419849493 L -75.2391133422786,39.933015939929 L -75.2388574818921,39.9328316390599 L -75.2386541247422,39.9327143230095 L -75.2384976875551,39.9326497638314 L -75.2383157936674,39.9326128615614 L -75.238127970409,39.9325711268372 L -75.2379523549298,39.9325296601043 L -75.2377885987376,39.9324978574704 L -75.2375613755191,39.9325304999124 L -75.2374379136058,39.9325654161352 L -75.2373256169027,39.9326287924191 L -75.2372190757649,39.9327017001944 L -75.2371233510851,39.9328124650339 L -75.2370150721399,39.9329323601973 L -75.2369118547664,39.9330805826505 L -75.2367919870626,39.9332660603015 L -75.236719286315,39.9334149504414 L -75.2366591405047,39.9335547110973 L -75.236644000563,39.9337989148415 L -75.2366490331755,39.933906588658 L -75.2366508218199,39.9339448453754 L -75.2366635726689,39.9340956090506 L -75.2366531253153,39.9342129455706 L -75.2366051854307,39.9343529728059 L -75.2365551612776,39.9345493863885 L -75.2365255322823,39.9346898157956 L -75.236470445745,39.9348579019317 L -75.2363943649838,39.9351807153628 L -75.2363214875101,39.9353343046325 L -75.2361718669189,39.9354156719345 L -75.2360776297947,39.9354814503842 L -75.2360150984549,39.9355250988424 L -75.2358647806474,39.9356252605616 L -75.2356658059362,39.9357196539952 L -75.2354600306325,39.9358327080794 L -75.2352655935508,39.9359695228021 L -75.2349810057059,39.9362313322592 L -75.2349218971733,39.9363428983915 L -75.2349236535744,39.9364605024436 L -75.2349184369781,39.9366014668688 L -75.2348479891659,39.9366892710202 L -75.2347750116211,39.9367629127618 L -75.2347457257919,39.936893943836 L -75.2347888194502,39.9370500755267 L -75.2347834286435,39.9371957384282 L -75.2348020052597,39.9373444344134 L -75.2348022807963,39.9373466352817 L -75.2348711817697,39.9374657118067 L -75.2349226403037,39.9375608925031 L -75.2349702734917,39.9377594470277 L -75.2349774393343,39.9378959797827 L -75.2349846051723,39.9380325134372 L -75.2350051956948,39.938136421788 L -75.2350756627366,39.938213209131 L -75.2351647900181,39.9382810000924 L -75.2352973424954,39.9383309330231 L -75.2354914586983,39.9383681068356 L -75.235783413283,39.9384027228034 L -75.2359477042194,39.9384204319398 L -75.2361486199793,39.9384389435908 L -75.2363491882543,39.9384668527623 L -75.2365017921909,39.9384701971776 L -75.2366856110617,39.9384554153409 L -75.236881638525,39.9384408998219 L -75.2371462026967,39.9383902654371 L -75.2374507898948,39.9383311017452 L -75.2376236166774,39.9382831588642 L -75.2377711575296,39.938258175133 L -75.2379675326982,39.9382342608076 L -75.2381750731731,39.9382388062289 L -75.2383280240074,39.938232750337 L -75.2384998080675,39.9382129988711 L -75.2387389100301,39.9381900188421 L -75.2388742428422,39.9381647664029 L -75.2390092283288,39.9381489116847 L -75.2391860741222,39.9381574855623 L -75.2393385038974,39.9381655255949 L -75.2394546562711,39.9381633649601 L -75.2395648773103,39.9381563720908 L -75.2397113769929,39.9381595786363 L -75.2398210773136,39.9381666827951 L -75.2399243268751,39.9381830502509 L -75.2400390909617,39.9382184796573 L -75.2401414729985,39.9382583411766 L -75.2402604322797,39.9383455918426 L -75.2404117508349,39.9384664673537 L -75.2405945591182,39.9386444644942 L -75.2407133473799,39.9387364123077 L -75.2407658559795,39.9388033976243 L -75.2407630801583,39.9388785789096 L -75.2407411232019,39.9389768528956 L -75.2407005089243,39.9390841250701 L -75.2406290249888,39.9392001264238 L -75.2405461995282,39.939292366349 L -75.2404267485444,39.9393838048419 L -75.2403440961258,39.9394713452285 L -75.240242437812,39.9395772815324 L -75.2401456683519,39.9397162416578 L -75.240018549178,39.9398498352558 L -75.2399529947523,39.9399706691801 L -75.2399053342397,39.9400450555884 L -75.2398816821826,39.9400819706745 L -75.2397988546336,39.9401742100587 L -75.2396379882522,39.9403117678741 L -75.239529354632,39.9404410632769 L -75.2394128808259,39.9406172125745 L -75.2394017417111,39.9407533441677 L -75.2394329865648,39.9408998098775 L -75.2394645787633,39.9410368767966 L -75.2394963446592,39.941169245216 L -75.2395645646039,39.9413071138018 L -75.2396333043727,39.9414308859484 L -75.2397369351751,39.9416024481677 L -75.2398480601875,39.9417365532744 L -75.2399886669293,39.9418995189655 L -75.2400764155887,39.9420048967372 L -75.2401524758233,39.9420959109037 L -75.2402543432064,39.942149867794 L -75.2403692876413,39.942180599276 L -75.2405213795745,39.9421980347201 L -75.2407919882943,39.9422321705014 L -75.2409561163187,39.9422545709567 L -75.2411814622608,39.9422736088209 L -75.2414498874078,39.9422841820402 L -75.2415850539355,39.9422636248987 L -75.2418299275021,39.9422501698352 L -75.2420376539265,39.9422500088744 L -75.2422940431463,39.9422556146606 L -75.2426109567031,39.9422766507352 L -75.2430686217806,39.9422913577797 L -75.2431776358133,39.9423172536122 L -75.2433356595622,39.9423395172295 L -75.2434172043448,39.9424059518617 L -75.2434364899329,39.9424216649727 L -75.2435331228052,39.9424519921744 L -75.2438464663394,39.9424870545444 L -75.2440716406376,39.9425107843286 L -75.2444119340701,39.9425605425791 L -75.2446610079541,39.942598901019 L -75.2450150717187,39.9426066341035 L -75.245228210574,39.942625396472 L -75.2454116935896,39.9426199985791 L -75.2455644793129,39.9426186315138 L -75.2457418569871,39.9426130997861 L -75.2458887128625,39.9426069005428 L -75.2460533628656,39.9426151973054 L -75.2461935940217,39.9426229616927 L -75.2463512732691,39.9426546181575 L -75.2464726716648,39.9426760788615 L -75.2465691331351,39.9427111029072 L -75.2466645562006,39.9427743187799 L -75.2467467302685,39.9428654617955 L -75.2468249888583,39.9429800315914 L -75.2468740452306,39.9431409904387 L -75.2469668731025,39.9432746889844 L -75.2470237648804,39.9433887932554 L -75.2470309924809,39.9434232904875 L -75.2466362569478,39.9435508331204 L -75.2458560650193,39.9438232935085 L -75.2452201161472,39.9440666701625 L -75.2444429142003,39.944342606653 L -75.2434207723941,39.9446995693139 L -75.2417736609565,39.9453068615225 L -75.2402693876561,39.945875184151 L -75.2400549547079,39.945926642169 L -75.239342213361,39.9460845773512 L -75.2387312851281,39.9461951924334 L -75.2379830258458,39.946341006286 L -75.2372729853378,39.9464722085888 L -75.236140299987,39.946742612657 L -75.2358734789764,39.9468153451463 L -75.2358099981767,39.9468450741504 L -75.2357527437475,39.9468597136745 L -75.2350508177062,39.9470016850142 L -75.2343646523722,39.9471832712749 L -75.2336071995774,39.9473602641302 L -75.2312732359177,39.947918162632 L -75.230304840255,39.9478105596185 L -75.229804206635,39.9477978533026 L -75.2294513763064,39.9477888972043 L -75.2290706139619,39.9477869350882 L -75.2276285478677,39.9477794897729 L -75.2274220154649,39.9477797999401 L -75.2261167071339,39.9477686981399 L -75.2254021401798,39.9477668084308 L -75.2252390834445,39.9477526680384 L -75.2249495397668,39.9477536171639 L -75.2233179836439,39.9479349988356 L -75.2233319195947,39.9480211178438 L -75.2232307283123,39.94848071844 L -75.2230773985042,39.9492209831126 L -75.2229168865386,39.9499845162975 L -75.2227536067677,39.9507637297023 L -75.2225917586569,39.9515286819375 L -75.2224377085882,39.9522899189174 L -75.2222818316251,39.9530490639241 L -75.2221946292328,39.9534230600349 L -75.2220593757275,39.9541120272351 L -75.2220394597611,39.954182587106 L -75.2219253763006,39.9547323207691 L -75.2218000821029,39.955328934961 L -75.221689182237,39.9558634243335 L -75.22156201441,39.9564709477952 L -75.2214956712709,39.956839799937 L -75.2214005530437,39.9572363578686 L -75.2212470013284,39.9579931862117 L -75.2210884884726,39.9587410302092 L -75.2209227074688,39.9595144346626 L -75.2199850664589,39.9593955082935 L -75.2191787164226,39.9592973922489 L -75.2189566756108,39.9592692652786 L -75.2170038305768,39.9590248891385 L -75.2140215999799,39.9586526354214 L -75.2136752821207,39.9600393598103 L -75.2135452251251,39.9605994150226 L -75.2134044395684,39.9611631099388 L -75.2130635763567,39.9625861666101 L -75.2119814742963,39.9626698150314 L -75.2119312299525,39.9626714137789 L -75.210561907892,39.9625805893764 L -75.2104929061163,39.9625806451718 L -75.2098173152754,39.9624630393121 L -75.2090608561647,39.9623380892194 L -75.208978171497,39.9623201462731 L -75.2088419333424,39.9623316413369 L -75.2077875479331,39.9624205898802 L -75.2068907895669,39.9624943179485 L -75.2055814838774,39.9626001711855 L -75.2047802693568,39.9626695450917 L -75.2043090343988,39.9627113431765 L -75.2039809361984,39.9627367837689 L -75.2023637019416,39.9628687382949 L -75.2023033133114,39.9622766048904 L -75.2023024226036,39.9622698203675 L -75.202296785849,39.9622313556422 L -75.2022682695416,39.9619530786732 L -75.2022371003445,39.9616528186276 L -75.2014195359621,39.9617775807487 L -75.2011817426882,39.9618132372752 L -75.2001389447389,39.9619721207479 L -75.1994387611979,39.9620514359727 L -75.197199610695,39.9622964754593 L -75.1957497866509,39.9624568564063 L -75.1943000366888,39.9626161261158 L -75.1941985126371,39.9626319009626 L -75.192848431926,39.9627789944136 L -75.1925197593482,39.9628180443127 L -75.1914791656174,39.9629297790061 L -75.1913926862973,39.9629311031481 L -75.1899406193208,39.9630924758414 L -75.1884887235489,39.9632570876811 L -75.1880278591834,39.9633034188491 L -75.1874180603301,39.9633763560547 z" /></g></svg>